<mxfile host="app.diagrams.net" agent="Mozilla/5.0 (Windows NT 10.0; Win64; x64; rv:131.0) Gecko/20100101 Firefox/131.0" version="24.7.8">
  <diagram name="Page-1" id="axnTXYyWf_4DUJo-Tl7g">
    <mxGraphModel dx="2074" dy="1961" grid="1" gridSize="10" guides="1" tooltips="1" connect="1" arrows="1" fold="1" page="1" pageScale="1" pageWidth="827" pageHeight="1169" math="0" shadow="0">
      <root>
        <mxCell id="0" />
        <mxCell id="1" parent="0" />
        <mxCell id="87-qB8Kny39CKsc_D1vo-36" style="edgeStyle=none;rounded=0;orthogonalLoop=1;jettySize=auto;html=1;entryX=1;entryY=0;entryDx=0;entryDy=0;" edge="1" parent="1" source="87-qB8Kny39CKsc_D1vo-29" target="87-qB8Kny39CKsc_D1vo-6">
          <mxGeometry relative="1" as="geometry" />
        </mxCell>
        <mxCell id="87-qB8Kny39CKsc_D1vo-41" value="&lt;font style=&quot;font-size: 14px;&quot;&gt;include&lt;/font&gt;" style="edgeLabel;html=1;align=center;verticalAlign=middle;resizable=0;points=[];" vertex="1" connectable="0" parent="87-qB8Kny39CKsc_D1vo-36">
          <mxGeometry x="-0.2929" y="1" relative="1" as="geometry">
            <mxPoint as="offset" />
          </mxGeometry>
        </mxCell>
        <mxCell id="87-qB8Kny39CKsc_D1vo-29" value="" style="ellipse;whiteSpace=wrap;html=1;" vertex="1" parent="1">
          <mxGeometry x="480" y="80" width="190" height="80" as="geometry" />
        </mxCell>
        <mxCell id="87-qB8Kny39CKsc_D1vo-30" value="Accès à la gestion des tâches" style="text;html=1;align=center;verticalAlign=middle;whiteSpace=wrap;rounded=0;" vertex="1" parent="1">
          <mxGeometry x="530" y="105" width="90" height="30" as="geometry" />
        </mxCell>
        <mxCell id="87-qB8Kny39CKsc_D1vo-37" style="edgeStyle=none;rounded=0;orthogonalLoop=1;jettySize=auto;html=1;entryX=1;entryY=1;entryDx=0;entryDy=0;exitX=0;exitY=0.5;exitDx=0;exitDy=0;" edge="1" parent="1" source="87-qB8Kny39CKsc_D1vo-26" target="87-qB8Kny39CKsc_D1vo-6">
          <mxGeometry relative="1" as="geometry" />
        </mxCell>
        <mxCell id="87-qB8Kny39CKsc_D1vo-42" value="&lt;font style=&quot;font-size: 13px;&quot;&gt;include&lt;/font&gt;" style="edgeLabel;html=1;align=center;verticalAlign=middle;resizable=0;points=[];" vertex="1" connectable="0" parent="87-qB8Kny39CKsc_D1vo-37">
          <mxGeometry x="0.15" y="-4" relative="1" as="geometry">
            <mxPoint as="offset" />
          </mxGeometry>
        </mxCell>
        <mxCell id="87-qB8Kny39CKsc_D1vo-26" value="" style="ellipse;whiteSpace=wrap;html=1;" vertex="1" parent="1">
          <mxGeometry x="480" y="400" width="190" height="80" as="geometry" />
        </mxCell>
        <mxCell id="87-qB8Kny39CKsc_D1vo-22" style="edgeStyle=none;rounded=0;orthogonalLoop=1;jettySize=auto;html=1;exitX=0.5;exitY=0;exitDx=0;exitDy=0;exitPerimeter=0;entryX=0;entryY=0.5;entryDx=0;entryDy=0;" edge="1" parent="1" source="87-qB8Kny39CKsc_D1vo-1" target="87-qB8Kny39CKsc_D1vo-6">
          <mxGeometry relative="1" as="geometry" />
        </mxCell>
        <mxCell id="87-qB8Kny39CKsc_D1vo-116" style="edgeStyle=none;rounded=0;orthogonalLoop=1;jettySize=auto;html=1;" edge="1" parent="1" source="87-qB8Kny39CKsc_D1vo-1" target="87-qB8Kny39CKsc_D1vo-114">
          <mxGeometry relative="1" as="geometry" />
        </mxCell>
        <mxCell id="87-qB8Kny39CKsc_D1vo-1" value="&lt;div&gt;&lt;font face=&quot;Verdana&quot;&gt;Etudiant &lt;br&gt;&lt;/font&gt;&lt;/div&gt;&lt;div&gt;&lt;br&gt;&lt;/div&gt;" style="shape=umlActor;verticalLabelPosition=bottom;verticalAlign=top;html=1;outlineConnect=0;fillColor=#ffe6cc;strokeColor=#d79b00;" vertex="1" parent="1">
          <mxGeometry x="40" y="280" width="30" height="60" as="geometry" />
        </mxCell>
        <mxCell id="87-qB8Kny39CKsc_D1vo-8" value="" style="group" vertex="1" connectable="0" parent="1">
          <mxGeometry x="170" y="240" width="190" height="80" as="geometry" />
        </mxCell>
        <mxCell id="87-qB8Kny39CKsc_D1vo-6" value="" style="ellipse;whiteSpace=wrap;html=1;" vertex="1" parent="87-qB8Kny39CKsc_D1vo-8">
          <mxGeometry width="190" height="80" as="geometry" />
        </mxCell>
        <mxCell id="87-qB8Kny39CKsc_D1vo-7" value="se connecter" style="text;html=1;align=center;verticalAlign=middle;whiteSpace=wrap;rounded=0;" vertex="1" parent="87-qB8Kny39CKsc_D1vo-8">
          <mxGeometry x="50" y="25" width="90" height="30" as="geometry" />
        </mxCell>
        <mxCell id="87-qB8Kny39CKsc_D1vo-11" value="" style="group" vertex="1" connectable="0" parent="1">
          <mxGeometry x="390" y="-105" width="190" height="80" as="geometry" />
        </mxCell>
        <mxCell id="87-qB8Kny39CKsc_D1vo-12" value="" style="ellipse;whiteSpace=wrap;html=1;" vertex="1" parent="87-qB8Kny39CKsc_D1vo-11">
          <mxGeometry width="190" height="80" as="geometry" />
        </mxCell>
        <mxCell id="87-qB8Kny39CKsc_D1vo-13" value="Avoir&amp;nbsp; un compte" style="text;html=1;align=center;verticalAlign=middle;whiteSpace=wrap;rounded=0;" vertex="1" parent="87-qB8Kny39CKsc_D1vo-11">
          <mxGeometry x="50" y="25" width="90" height="30" as="geometry" />
        </mxCell>
        <mxCell id="87-qB8Kny39CKsc_D1vo-27" value="Accès au calendrier" style="text;html=1;align=center;verticalAlign=middle;whiteSpace=wrap;rounded=0;" vertex="1" parent="1">
          <mxGeometry x="530" y="425" width="90" height="30" as="geometry" />
        </mxCell>
        <mxCell id="87-qB8Kny39CKsc_D1vo-38" style="edgeStyle=none;rounded=0;orthogonalLoop=1;jettySize=auto;html=1;entryX=0.5;entryY=1;entryDx=0;entryDy=0;exitX=0;exitY=0.5;exitDx=0;exitDy=0;" edge="1" parent="1" source="87-qB8Kny39CKsc_D1vo-32" target="87-qB8Kny39CKsc_D1vo-6">
          <mxGeometry relative="1" as="geometry">
            <mxPoint x="470" y="600" as="sourcePoint" />
          </mxGeometry>
        </mxCell>
        <mxCell id="87-qB8Kny39CKsc_D1vo-43" value="&lt;font style=&quot;font-size: 13px;&quot;&gt;include&lt;/font&gt;" style="edgeLabel;html=1;align=center;verticalAlign=middle;resizable=0;points=[];" vertex="1" connectable="0" parent="87-qB8Kny39CKsc_D1vo-38">
          <mxGeometry x="-0.2077" y="3" relative="1" as="geometry">
            <mxPoint as="offset" />
          </mxGeometry>
        </mxCell>
        <mxCell id="87-qB8Kny39CKsc_D1vo-32" value="" style="ellipse;whiteSpace=wrap;html=1;" vertex="1" parent="1">
          <mxGeometry x="480" y="850" width="190" height="80" as="geometry" />
        </mxCell>
        <mxCell id="87-qB8Kny39CKsc_D1vo-33" value="Accès au chat" style="text;html=1;align=center;verticalAlign=middle;whiteSpace=wrap;rounded=0;" vertex="1" parent="1">
          <mxGeometry x="530" y="875" width="90" height="30" as="geometry" />
        </mxCell>
        <mxCell id="87-qB8Kny39CKsc_D1vo-39" style="edgeStyle=none;rounded=0;orthogonalLoop=1;jettySize=auto;html=1;exitX=0.5;exitY=0;exitDx=0;exitDy=0;entryX=0.442;entryY=0.988;entryDx=0;entryDy=0;entryPerimeter=0;" edge="1" parent="1" source="87-qB8Kny39CKsc_D1vo-6" target="87-qB8Kny39CKsc_D1vo-12">
          <mxGeometry relative="1" as="geometry" />
        </mxCell>
        <mxCell id="87-qB8Kny39CKsc_D1vo-40" value="&lt;font style=&quot;font-size: 16px;&quot;&gt;include&lt;/font&gt;" style="edgeLabel;html=1;align=center;verticalAlign=middle;resizable=0;points=[];" vertex="1" connectable="0" parent="87-qB8Kny39CKsc_D1vo-39">
          <mxGeometry x="-0.035" y="2" relative="1" as="geometry">
            <mxPoint as="offset" />
          </mxGeometry>
        </mxCell>
        <mxCell id="87-qB8Kny39CKsc_D1vo-52" style="edgeStyle=none;rounded=0;orthogonalLoop=1;jettySize=auto;html=1;entryX=1;entryY=0;entryDx=0;entryDy=0;" edge="1" parent="1" source="87-qB8Kny39CKsc_D1vo-44" target="87-qB8Kny39CKsc_D1vo-29">
          <mxGeometry relative="1" as="geometry" />
        </mxCell>
        <mxCell id="87-qB8Kny39CKsc_D1vo-56" value="extend" style="edgeLabel;html=1;align=center;verticalAlign=middle;resizable=0;points=[];" vertex="1" connectable="0" parent="87-qB8Kny39CKsc_D1vo-52">
          <mxGeometry x="-0.0958" y="1" relative="1" as="geometry">
            <mxPoint as="offset" />
          </mxGeometry>
        </mxCell>
        <mxCell id="87-qB8Kny39CKsc_D1vo-44" value="" style="ellipse;whiteSpace=wrap;html=1;" vertex="1" parent="1">
          <mxGeometry x="810" y="-80" width="190" height="80" as="geometry" />
        </mxCell>
        <mxCell id="87-qB8Kny39CKsc_D1vo-45" value="consulter une tâche" style="text;html=1;align=center;verticalAlign=middle;whiteSpace=wrap;rounded=0;" vertex="1" parent="1">
          <mxGeometry x="860" y="-55" width="90" height="30" as="geometry" />
        </mxCell>
        <mxCell id="87-qB8Kny39CKsc_D1vo-53" style="edgeStyle=none;rounded=0;orthogonalLoop=1;jettySize=auto;html=1;entryX=1;entryY=0.5;entryDx=0;entryDy=0;" edge="1" parent="1" source="87-qB8Kny39CKsc_D1vo-46" target="87-qB8Kny39CKsc_D1vo-29">
          <mxGeometry relative="1" as="geometry" />
        </mxCell>
        <mxCell id="87-qB8Kny39CKsc_D1vo-57" value="extend" style="edgeLabel;html=1;align=center;verticalAlign=middle;resizable=0;points=[];" vertex="1" connectable="0" parent="87-qB8Kny39CKsc_D1vo-53">
          <mxGeometry x="-0.1714" y="-1" relative="1" as="geometry">
            <mxPoint as="offset" />
          </mxGeometry>
        </mxCell>
        <mxCell id="87-qB8Kny39CKsc_D1vo-46" value="" style="ellipse;whiteSpace=wrap;html=1;" vertex="1" parent="1">
          <mxGeometry x="810" y="80" width="190" height="80" as="geometry" />
        </mxCell>
        <mxCell id="87-qB8Kny39CKsc_D1vo-47" value="créer une tâche" style="text;html=1;align=center;verticalAlign=middle;whiteSpace=wrap;rounded=0;" vertex="1" parent="1">
          <mxGeometry x="860" y="105" width="90" height="30" as="geometry" />
        </mxCell>
        <mxCell id="87-qB8Kny39CKsc_D1vo-54" style="edgeStyle=none;rounded=0;orthogonalLoop=1;jettySize=auto;html=1;entryX=1;entryY=0.5;entryDx=0;entryDy=0;" edge="1" parent="1" source="87-qB8Kny39CKsc_D1vo-48" target="87-qB8Kny39CKsc_D1vo-44">
          <mxGeometry relative="1" as="geometry" />
        </mxCell>
        <mxCell id="87-qB8Kny39CKsc_D1vo-55" value="&lt;font style=&quot;font-size: 13px;&quot;&gt;include&lt;/font&gt;" style="edgeLabel;html=1;align=center;verticalAlign=middle;resizable=0;points=[];" vertex="1" connectable="0" parent="87-qB8Kny39CKsc_D1vo-54">
          <mxGeometry x="-0.32" y="-1" relative="1" as="geometry">
            <mxPoint as="offset" />
          </mxGeometry>
        </mxCell>
        <mxCell id="87-qB8Kny39CKsc_D1vo-48" value="" style="ellipse;whiteSpace=wrap;html=1;" vertex="1" parent="1">
          <mxGeometry x="1150" y="-80" width="190" height="80" as="geometry" />
        </mxCell>
        <mxCell id="87-qB8Kny39CKsc_D1vo-49" value="supprimer la tâche" style="text;html=1;align=center;verticalAlign=middle;whiteSpace=wrap;rounded=0;" vertex="1" parent="1">
          <mxGeometry x="1200" y="-55" width="90" height="30" as="geometry" />
        </mxCell>
        <mxCell id="87-qB8Kny39CKsc_D1vo-69" style="edgeStyle=none;rounded=0;orthogonalLoop=1;jettySize=auto;html=1;exitX=0;exitY=0.5;exitDx=0;exitDy=0;" edge="1" parent="1" source="87-qB8Kny39CKsc_D1vo-50" target="87-qB8Kny39CKsc_D1vo-26">
          <mxGeometry relative="1" as="geometry" />
        </mxCell>
        <mxCell id="87-qB8Kny39CKsc_D1vo-72" value="extend" style="edgeLabel;html=1;align=center;verticalAlign=middle;resizable=0;points=[];" vertex="1" connectable="0" parent="87-qB8Kny39CKsc_D1vo-69">
          <mxGeometry x="-0.1125" y="2" relative="1" as="geometry">
            <mxPoint as="offset" />
          </mxGeometry>
        </mxCell>
        <mxCell id="87-qB8Kny39CKsc_D1vo-50" value="" style="ellipse;whiteSpace=wrap;html=1;" vertex="1" parent="1">
          <mxGeometry x="810" y="565" width="190" height="80" as="geometry" />
        </mxCell>
        <mxCell id="87-qB8Kny39CKsc_D1vo-51" value="Changer de mois" style="text;html=1;align=center;verticalAlign=middle;whiteSpace=wrap;rounded=0;" vertex="1" parent="1">
          <mxGeometry x="860" y="590" width="90" height="30" as="geometry" />
        </mxCell>
        <mxCell id="87-qB8Kny39CKsc_D1vo-62" value="" style="ellipse;whiteSpace=wrap;html=1;" vertex="1" parent="1">
          <mxGeometry x="810" y="245" width="190" height="80" as="geometry" />
        </mxCell>
        <mxCell id="87-qB8Kny39CKsc_D1vo-63" value="Consulter le planning" style="text;html=1;align=center;verticalAlign=middle;whiteSpace=wrap;rounded=0;" vertex="1" parent="1">
          <mxGeometry x="860" y="270" width="90" height="30" as="geometry" />
        </mxCell>
        <mxCell id="87-qB8Kny39CKsc_D1vo-68" style="edgeStyle=none;rounded=0;orthogonalLoop=1;jettySize=auto;html=1;entryX=1;entryY=0.5;entryDx=0;entryDy=0;" edge="1" parent="1" source="87-qB8Kny39CKsc_D1vo-64" target="87-qB8Kny39CKsc_D1vo-26">
          <mxGeometry relative="1" as="geometry" />
        </mxCell>
        <mxCell id="87-qB8Kny39CKsc_D1vo-71" value="extend" style="edgeLabel;html=1;align=center;verticalAlign=middle;resizable=0;points=[];" vertex="1" connectable="0" parent="87-qB8Kny39CKsc_D1vo-68">
          <mxGeometry x="-0.2139" y="2" relative="1" as="geometry">
            <mxPoint as="offset" />
          </mxGeometry>
        </mxCell>
        <mxCell id="87-qB8Kny39CKsc_D1vo-64" value="" style="ellipse;whiteSpace=wrap;html=1;" vertex="1" parent="1">
          <mxGeometry x="810" y="405" width="190" height="80" as="geometry" />
        </mxCell>
        <mxCell id="87-qB8Kny39CKsc_D1vo-65" value="Changer de semaine" style="text;html=1;align=center;verticalAlign=middle;whiteSpace=wrap;rounded=0;" vertex="1" parent="1">
          <mxGeometry x="860" y="430" width="90" height="30" as="geometry" />
        </mxCell>
        <mxCell id="87-qB8Kny39CKsc_D1vo-66" style="edgeStyle=none;rounded=0;orthogonalLoop=1;jettySize=auto;html=1;entryX=0;entryY=0.5;entryDx=0;entryDy=0;" edge="1" parent="1" source="87-qB8Kny39CKsc_D1vo-32" target="87-qB8Kny39CKsc_D1vo-32">
          <mxGeometry relative="1" as="geometry" />
        </mxCell>
        <mxCell id="87-qB8Kny39CKsc_D1vo-67" style="edgeStyle=none;rounded=0;orthogonalLoop=1;jettySize=auto;html=1;entryX=0.695;entryY=0.038;entryDx=0;entryDy=0;entryPerimeter=0;" edge="1" parent="1" source="87-qB8Kny39CKsc_D1vo-62" target="87-qB8Kny39CKsc_D1vo-26">
          <mxGeometry relative="1" as="geometry" />
        </mxCell>
        <mxCell id="87-qB8Kny39CKsc_D1vo-70" value="extend" style="edgeLabel;html=1;align=center;verticalAlign=middle;resizable=0;points=[];" vertex="1" connectable="0" parent="87-qB8Kny39CKsc_D1vo-67">
          <mxGeometry x="-0.1681" relative="1" as="geometry">
            <mxPoint as="offset" />
          </mxGeometry>
        </mxCell>
        <mxCell id="87-qB8Kny39CKsc_D1vo-78" style="edgeStyle=none;rounded=0;orthogonalLoop=1;jettySize=auto;html=1;" edge="1" parent="1" source="87-qB8Kny39CKsc_D1vo-73" target="87-qB8Kny39CKsc_D1vo-64">
          <mxGeometry relative="1" as="geometry" />
        </mxCell>
        <mxCell id="87-qB8Kny39CKsc_D1vo-73" value="" style="ellipse;whiteSpace=wrap;html=1;" vertex="1" parent="1">
          <mxGeometry x="1146" y="245" width="190" height="80" as="geometry" />
        </mxCell>
        <mxCell id="87-qB8Kny39CKsc_D1vo-74" value="précédent" style="text;html=1;align=center;verticalAlign=middle;whiteSpace=wrap;rounded=0;" vertex="1" parent="1">
          <mxGeometry x="1196" y="270" width="90" height="30" as="geometry" />
        </mxCell>
        <mxCell id="87-qB8Kny39CKsc_D1vo-79" style="edgeStyle=none;rounded=0;orthogonalLoop=1;jettySize=auto;html=1;entryX=1;entryY=0.5;entryDx=0;entryDy=0;" edge="1" parent="1" source="87-qB8Kny39CKsc_D1vo-75" target="87-qB8Kny39CKsc_D1vo-64">
          <mxGeometry relative="1" as="geometry" />
        </mxCell>
        <mxCell id="87-qB8Kny39CKsc_D1vo-75" value="" style="ellipse;whiteSpace=wrap;html=1;" vertex="1" parent="1">
          <mxGeometry x="1146" y="405" width="190" height="80" as="geometry" />
        </mxCell>
        <mxCell id="87-qB8Kny39CKsc_D1vo-76" value="suivant" style="text;html=1;align=center;verticalAlign=middle;whiteSpace=wrap;rounded=0;" vertex="1" parent="1">
          <mxGeometry x="1196" y="430" width="90" height="30" as="geometry" />
        </mxCell>
        <mxCell id="87-qB8Kny39CKsc_D1vo-84" style="edgeStyle=none;rounded=0;orthogonalLoop=1;jettySize=auto;html=1;entryX=1;entryY=0.5;entryDx=0;entryDy=0;" edge="1" parent="1" source="87-qB8Kny39CKsc_D1vo-80" target="87-qB8Kny39CKsc_D1vo-50">
          <mxGeometry relative="1" as="geometry" />
        </mxCell>
        <mxCell id="87-qB8Kny39CKsc_D1vo-80" value="" style="ellipse;whiteSpace=wrap;html=1;" vertex="1" parent="1">
          <mxGeometry x="1150" y="565" width="190" height="80" as="geometry" />
        </mxCell>
        <mxCell id="87-qB8Kny39CKsc_D1vo-81" value="précédent" style="text;html=1;align=center;verticalAlign=middle;whiteSpace=wrap;rounded=0;" vertex="1" parent="1">
          <mxGeometry x="1200" y="590" width="90" height="30" as="geometry" />
        </mxCell>
        <mxCell id="87-qB8Kny39CKsc_D1vo-85" style="edgeStyle=none;rounded=0;orthogonalLoop=1;jettySize=auto;html=1;" edge="1" parent="1" source="87-qB8Kny39CKsc_D1vo-82" target="87-qB8Kny39CKsc_D1vo-50">
          <mxGeometry relative="1" as="geometry" />
        </mxCell>
        <mxCell id="87-qB8Kny39CKsc_D1vo-82" value="" style="ellipse;whiteSpace=wrap;html=1;" vertex="1" parent="1">
          <mxGeometry x="1150" y="725" width="190" height="80" as="geometry" />
        </mxCell>
        <mxCell id="87-qB8Kny39CKsc_D1vo-83" value="suivant" style="text;html=1;align=center;verticalAlign=middle;whiteSpace=wrap;rounded=0;" vertex="1" parent="1">
          <mxGeometry x="1200" y="750" width="90" height="30" as="geometry" />
        </mxCell>
        <mxCell id="87-qB8Kny39CKsc_D1vo-86" value="" style="ellipse;whiteSpace=wrap;html=1;" vertex="1" parent="1">
          <mxGeometry x="810" y="1329" width="190" height="80" as="geometry" />
        </mxCell>
        <mxCell id="87-qB8Kny39CKsc_D1vo-87" value="Recherche un contact" style="text;html=1;align=center;verticalAlign=middle;whiteSpace=wrap;rounded=0;" vertex="1" parent="1">
          <mxGeometry x="860" y="1354" width="90" height="30" as="geometry" />
        </mxCell>
        <mxCell id="87-qB8Kny39CKsc_D1vo-101" style="edgeStyle=none;rounded=0;orthogonalLoop=1;jettySize=auto;html=1;entryX=1;entryY=0.5;entryDx=0;entryDy=0;" edge="1" parent="1" source="87-qB8Kny39CKsc_D1vo-88" target="87-qB8Kny39CKsc_D1vo-32">
          <mxGeometry relative="1" as="geometry" />
        </mxCell>
        <mxCell id="87-qB8Kny39CKsc_D1vo-102" value="Extend" style="edgeLabel;html=1;align=center;verticalAlign=middle;resizable=0;points=[];" vertex="1" connectable="0" parent="87-qB8Kny39CKsc_D1vo-101">
          <mxGeometry x="-0.1996" y="2" relative="1" as="geometry">
            <mxPoint as="offset" />
          </mxGeometry>
        </mxCell>
        <mxCell id="87-qB8Kny39CKsc_D1vo-88" value="" style="ellipse;whiteSpace=wrap;html=1;" vertex="1" parent="1">
          <mxGeometry x="810" y="1010" width="190" height="80" as="geometry" />
        </mxCell>
        <mxCell id="87-qB8Kny39CKsc_D1vo-89" value="Sélectionner un contact" style="text;html=1;align=center;verticalAlign=middle;whiteSpace=wrap;rounded=0;" vertex="1" parent="1">
          <mxGeometry x="860" y="1035" width="90" height="30" as="geometry" />
        </mxCell>
        <mxCell id="87-qB8Kny39CKsc_D1vo-90" style="edgeStyle=none;rounded=0;orthogonalLoop=1;jettySize=auto;html=1;exitX=0;exitY=0.5;exitDx=0;exitDy=0;" edge="1" parent="1" source="87-qB8Kny39CKsc_D1vo-91" target="87-qB8Kny39CKsc_D1vo-88">
          <mxGeometry relative="1" as="geometry" />
        </mxCell>
        <mxCell id="87-qB8Kny39CKsc_D1vo-103" value="include" style="edgeLabel;html=1;align=center;verticalAlign=middle;resizable=0;points=[];" vertex="1" connectable="0" parent="87-qB8Kny39CKsc_D1vo-90">
          <mxGeometry x="-0.0593" y="1" relative="1" as="geometry">
            <mxPoint as="offset" />
          </mxGeometry>
        </mxCell>
        <mxCell id="87-qB8Kny39CKsc_D1vo-91" value="" style="ellipse;whiteSpace=wrap;html=1;" vertex="1" parent="1">
          <mxGeometry x="1146" y="850" width="190" height="80" as="geometry" />
        </mxCell>
        <mxCell id="87-qB8Kny39CKsc_D1vo-92" value="Lire un nouveau message" style="text;html=1;align=center;verticalAlign=middle;whiteSpace=wrap;rounded=0;" vertex="1" parent="1">
          <mxGeometry x="1196" y="875" width="90" height="30" as="geometry" />
        </mxCell>
        <mxCell id="87-qB8Kny39CKsc_D1vo-99" style="edgeStyle=none;rounded=0;orthogonalLoop=1;jettySize=auto;html=1;entryX=1;entryY=0.5;entryDx=0;entryDy=0;" edge="1" parent="1" source="87-qB8Kny39CKsc_D1vo-94" target="87-qB8Kny39CKsc_D1vo-88">
          <mxGeometry relative="1" as="geometry">
            <mxPoint x="1130" y="1050" as="targetPoint" />
          </mxGeometry>
        </mxCell>
        <mxCell id="87-qB8Kny39CKsc_D1vo-104" value="include" style="edgeLabel;html=1;align=center;verticalAlign=middle;resizable=0;points=[];" vertex="1" connectable="0" parent="87-qB8Kny39CKsc_D1vo-99">
          <mxGeometry x="-0.28" y="1" relative="1" as="geometry">
            <mxPoint as="offset" />
          </mxGeometry>
        </mxCell>
        <mxCell id="87-qB8Kny39CKsc_D1vo-94" value="" style="ellipse;whiteSpace=wrap;html=1;" vertex="1" parent="1">
          <mxGeometry x="1150" y="1010" width="190" height="80" as="geometry" />
        </mxCell>
        <mxCell id="87-qB8Kny39CKsc_D1vo-95" value="envoyer un message" style="text;html=1;align=center;verticalAlign=middle;whiteSpace=wrap;rounded=0;" vertex="1" parent="1">
          <mxGeometry x="1200" y="1035" width="90" height="30" as="geometry" />
        </mxCell>
        <mxCell id="87-qB8Kny39CKsc_D1vo-97" value="" style="ellipse;whiteSpace=wrap;html=1;" vertex="1" parent="1">
          <mxGeometry x="1150" y="1170" width="190" height="80" as="geometry" />
        </mxCell>
        <mxCell id="87-qB8Kny39CKsc_D1vo-98" value="Consulter l&#39;historique des messages" style="text;html=1;align=center;verticalAlign=middle;whiteSpace=wrap;rounded=0;" vertex="1" parent="1">
          <mxGeometry x="1200" y="1195" width="90" height="30" as="geometry" />
        </mxCell>
        <mxCell id="87-qB8Kny39CKsc_D1vo-100" style="edgeStyle=none;rounded=0;orthogonalLoop=1;jettySize=auto;html=1;entryX=0.789;entryY=0.888;entryDx=0;entryDy=0;entryPerimeter=0;" edge="1" parent="1" source="87-qB8Kny39CKsc_D1vo-97" target="87-qB8Kny39CKsc_D1vo-88">
          <mxGeometry relative="1" as="geometry" />
        </mxCell>
        <mxCell id="87-qB8Kny39CKsc_D1vo-105" value="include" style="edgeLabel;html=1;align=center;verticalAlign=middle;resizable=0;points=[];" vertex="1" connectable="0" parent="87-qB8Kny39CKsc_D1vo-100">
          <mxGeometry x="-0.0443" y="2" relative="1" as="geometry">
            <mxPoint as="offset" />
          </mxGeometry>
        </mxCell>
        <mxCell id="87-qB8Kny39CKsc_D1vo-110" style="edgeStyle=none;rounded=0;orthogonalLoop=1;jettySize=auto;html=1;entryX=1;entryY=0.5;entryDx=0;entryDy=0;" edge="1" parent="1" source="87-qB8Kny39CKsc_D1vo-108" target="87-qB8Kny39CKsc_D1vo-86">
          <mxGeometry relative="1" as="geometry" />
        </mxCell>
        <mxCell id="87-qB8Kny39CKsc_D1vo-112" value="include" style="edgeLabel;html=1;align=center;verticalAlign=middle;resizable=0;points=[];" vertex="1" connectable="0" parent="87-qB8Kny39CKsc_D1vo-110">
          <mxGeometry x="-0.28" y="-1" relative="1" as="geometry">
            <mxPoint as="offset" />
          </mxGeometry>
        </mxCell>
        <mxCell id="87-qB8Kny39CKsc_D1vo-108" value="" style="ellipse;whiteSpace=wrap;html=1;" vertex="1" parent="1">
          <mxGeometry x="1150" y="1329" width="190" height="80" as="geometry" />
        </mxCell>
        <mxCell id="87-qB8Kny39CKsc_D1vo-109" value="&lt;div&gt;Ajouter un contact&lt;/div&gt;" style="text;html=1;align=center;verticalAlign=middle;whiteSpace=wrap;rounded=0;" vertex="1" parent="1">
          <mxGeometry x="1200" y="1354" width="90" height="30" as="geometry" />
        </mxCell>
        <mxCell id="87-qB8Kny39CKsc_D1vo-111" style="edgeStyle=none;rounded=0;orthogonalLoop=1;jettySize=auto;html=1;exitX=0;exitY=0.5;exitDx=0;exitDy=0;entryX=0.716;entryY=1;entryDx=0;entryDy=0;entryPerimeter=0;" edge="1" parent="1" source="87-qB8Kny39CKsc_D1vo-86" target="87-qB8Kny39CKsc_D1vo-32">
          <mxGeometry relative="1" as="geometry" />
        </mxCell>
        <mxCell id="87-qB8Kny39CKsc_D1vo-113" value="Extend" style="edgeLabel;html=1;align=center;verticalAlign=middle;resizable=0;points=[];" vertex="1" connectable="0" parent="87-qB8Kny39CKsc_D1vo-111">
          <mxGeometry x="-0.0341" y="3" relative="1" as="geometry">
            <mxPoint x="1" as="offset" />
          </mxGeometry>
        </mxCell>
        <mxCell id="87-qB8Kny39CKsc_D1vo-114" value="" style="ellipse;whiteSpace=wrap;html=1;" vertex="1" parent="1">
          <mxGeometry x="150" y="-110" width="190" height="80" as="geometry" />
        </mxCell>
        <mxCell id="87-qB8Kny39CKsc_D1vo-115" value="Créer un compte" style="text;html=1;align=center;verticalAlign=middle;whiteSpace=wrap;rounded=0;" vertex="1" parent="1">
          <mxGeometry x="200" y="-85" width="90" height="30" as="geometry" />
        </mxCell>
        <mxCell id="87-qB8Kny39CKsc_D1vo-120" style="edgeStyle=none;rounded=0;orthogonalLoop=1;jettySize=auto;html=1;" edge="1" parent="1" source="87-qB8Kny39CKsc_D1vo-117" target="87-qB8Kny39CKsc_D1vo-1">
          <mxGeometry relative="1" as="geometry" />
        </mxCell>
        <mxCell id="87-qB8Kny39CKsc_D1vo-123" style="edgeStyle=none;rounded=0;orthogonalLoop=1;jettySize=auto;html=1;" edge="1" parent="1" source="87-qB8Kny39CKsc_D1vo-117" target="87-qB8Kny39CKsc_D1vo-121">
          <mxGeometry relative="1" as="geometry" />
        </mxCell>
        <mxCell id="87-qB8Kny39CKsc_D1vo-117" value="&lt;div&gt;&lt;font face=&quot;Verdana&quot;&gt;Bénévole&lt;br&gt;&lt;/font&gt;&lt;/div&gt;&lt;div&gt;&lt;br&gt;&lt;/div&gt;" style="shape=umlActor;verticalLabelPosition=bottom;verticalAlign=top;html=1;outlineConnect=0;fillColor=#ffe6cc;strokeColor=#d79b00;" vertex="1" parent="1">
          <mxGeometry x="40" y="525" width="30" height="60" as="geometry" />
        </mxCell>
        <mxCell id="87-qB8Kny39CKsc_D1vo-121" value="" style="ellipse;whiteSpace=wrap;html=1;" vertex="1" parent="1">
          <mxGeometry x="170" y="850" width="190" height="80" as="geometry" />
        </mxCell>
        <mxCell id="87-qB8Kny39CKsc_D1vo-122" value="Organiser un RDV" style="text;html=1;align=center;verticalAlign=middle;whiteSpace=wrap;rounded=0;" vertex="1" parent="1">
          <mxGeometry x="220" y="875" width="90" height="30" as="geometry" />
        </mxCell>
      </root>
    </mxGraphModel>
  </diagram>
</mxfile>
